<svg xmlns="http://www.w3.org/2000/svg" viewBox="0 -77 2375 99"><path fill="currentColor" d="M12.4 0L2.5 0L29.0-72.8L39.7-72.8L66.5 0L56.7 0L41.3-43.2Q39.8-47.2 38.0-53.1Q36.1-59.1 33.4-68.4L33.4-68.4L35.2-68.4Q32.5-59.0 30.6-53.0Q28.7-46.9 27.4-43.2L27.4-43.2L12.4 0ZM53.2-20.3L15.8-20.3L15.8-28.4L53.2-28.4L53.2-20.3ZM85.5-32.7L85.5-32.7L85.5 0L76.7 0L76.7-54.6L85.2-54.6L85.2-41.4L84.0-41.4Q86.5-48.9 91.1-52.1Q95.7-55.3 101.9-55.3L101.9-55.3Q107.4-55.3 111.6-53.0Q115.7-50.7 118.0-46.2Q120.4-41.6 120.4-34.7L120.4-34.7L120.4 0L111.6 0L111.6-33.9Q111.6-40.2 108.3-43.8Q105.0-47.4 99.3-47.4L99.3-47.4Q95.4-47.4 92.2-45.7Q89.1-43.9 87.3-40.7Q85.5-37.4 85.5-32.7ZM186.9 1.2L186.9 1.2Q179.0 1.2 173.2-2.3Q167.5-5.9 164.4-12.2Q161.3-18.5 161.3-26.9L161.3-26.9Q161.3-35.3 164.3-41.7Q167.3-48.0 172.9-51.7Q178.4-55.3 185.8-55.3L185.8-55.3Q190.2-55.3 194.4-53.8Q198.6-52.4 202.1-49.2Q205.5-46.0 207.6-40.8Q209.6-35.5 209.6-28.0L209.6-28.0L209.6-24.3L167.2-24.3L167.2-31.7L204.9-31.7L200.8-29.0Q200.8-34.4 199.1-38.5Q197.4-42.7 194.1-45.1Q190.8-47.5 185.8-47.5L185.8-47.5Q180.9-47.5 177.4-45.0Q173.9-42.6 172.0-38.7Q170.2-34.9 170.2-30.4L170.2-30.4L170.2-25.5Q170.2-19.4 172.3-15.2Q174.4-11.0 178.1-8.8Q181.9-6.6 186.9-6.6L186.9-6.6Q190.1-6.6 192.8-7.6Q195.4-8.5 197.3-10.4Q199.2-12.3 200.2-15.0L200.2-15.0L208.7-12.7Q207.5-8.6 204.4-5.5Q201.4-2.3 196.9-0.6Q192.5 1.2 186.9 1.2ZM231.0-32.7L231.0-32.7L231.0 0L222.2 0L222.2-54.6L230.7-54.6L230.7-41.4L229.5-41.4Q232.0-48.9 236.6-52.1Q241.2-55.3 247.4-55.3L247.4-55.3Q252.9-55.3 257.1-53.0Q261.2-50.7 263.5-46.2Q265.9-41.6 265.9-34.7L265.9-34.7L265.9 0L257.1 0L257.1-33.9Q257.1-40.2 253.8-43.8Q250.5-47.4 244.8-47.4L244.8-47.4Q240.9-47.4 237.7-45.7Q234.6-43.9 232.8-40.7Q231.0-37.4 231.0-32.7ZM303.4 21.6L303.4 21.6Q297.4 21.6 292.9 20.0Q288.5 18.5 285.6 16.0Q282.7 13.4 281.0 10.4L281.0 10.4L288.1 5.9Q289.3 7.4 291.0 9.3Q292.7 11.2 295.7 12.6Q298.6 13.9 303.4 13.9L303.4 13.9Q310.0 13.9 314.2 10.8Q318.4 7.7 318.4 0.9L318.4 0.9L318.4-10.0L317.6-10.0Q316.7-8.4 315.0-6.3Q313.3-4.2 310.1-2.5Q307.0-0.9 301.7-0.9L301.7-0.9Q295.2-0.9 289.9-4.0Q284.7-7.1 281.7-13.0Q278.7-19.0 278.7-27.5L278.7-27.5Q278.7-36.0 281.6-42.2Q284.6-48.4 289.9-51.9Q295.1-55.3 301.9-55.3L301.9-55.3Q307.2-55.3 310.3-53.5Q313.5-51.8 315.2-49.6Q316.9-47.3 317.8-45.8L317.8-45.8L318.7-45.8L318.7-54.6L327.2-54.6L327.2 1.4Q327.2 8.4 324.0 12.9Q320.8 17.4 315.5 19.5Q310.1 21.6 303.4 21.6ZM303.2-8.7L303.2-8.7Q308.2-8.7 311.6-11.0Q315.0-13.2 316.7-17.5Q318.5-21.8 318.5-27.7L318.5-27.7Q318.5-33.5 316.8-38.0Q315.0-42.4 311.6-44.9Q308.2-47.4 303.2-47.4L303.2-47.4Q298.0-47.4 294.5-44.8Q291.1-42.1 289.3-37.6Q287.6-33.2 287.6-27.7L287.6-27.7Q287.6-22.1 289.4-17.8Q291.1-13.5 294.6-11.1Q298.0-8.7 303.2-8.7ZM351.4 0L342.6 0L342.6-54.6L351.4-54.6L351.4 0ZM347.1-63.5L347.1-63.5Q344.6-63.5 342.8-65.2Q341.0-66.9 341.0-69.3L341.0-69.3Q341.0-71.8 342.8-73.5Q344.6-75.1 347.1-75.1L347.1-75.1Q349.6-75.1 351.4-73.5Q353.2-71.8 353.2-69.3L353.2-69.3Q353.2-66.9 351.4-65.2Q349.6-63.5 347.1-63.5ZM375.6-32.7L375.6-32.7L375.6 0L366.8 0L366.8-54.6L375.3-54.6L375.3-41.4L374.1-41.4Q376.6-48.9 381.2-52.1Q385.8-55.3 392.0-55.3L392.0-55.3Q397.6-55.3 401.7-53.0Q405.9-50.7 408.2-46.2Q410.5-41.6 410.5-34.7L410.5-34.7L410.5 0L401.7 0L401.7-33.9Q401.7-40.2 398.4-43.8Q395.1-47.4 389.4-47.4L389.4-47.4Q385.5-47.4 382.4-45.7Q379.2-43.9 377.4-40.7Q375.6-37.4 375.6-32.7ZM448.9 1.2L448.9 1.2Q441.0 1.2 435.2-2.3Q429.5-5.9 426.4-12.2Q423.3-18.5 423.3-26.9L423.3-26.9Q423.3-35.3 426.3-41.7Q429.3-48.0 434.9-51.7Q440.4-55.3 447.9-55.3L447.9-55.3Q452.2-55.3 456.4-53.8Q460.6-52.4 464.1-49.2Q467.5-46.0 469.6-40.8Q471.6-35.5 471.6-28.0L471.6-28.0L471.6-24.3L429.2-24.3L429.2-31.7L466.9-31.7L462.8-29.0Q462.8-34.4 461.1-38.5Q459.4-42.7 456.1-45.1Q452.8-47.5 447.9-47.5L447.9-47.5Q442.9-47.5 439.4-45.0Q435.9-42.6 434.0-38.7Q432.2-34.9 432.2-30.4L432.2-30.4L432.2-25.5Q432.2-19.4 434.3-15.2Q436.4-11.0 440.2-8.8Q443.9-6.6 448.9-6.6L448.9-6.6Q452.1-6.6 454.8-7.6Q457.4-8.5 459.3-10.4Q461.2-12.3 462.3-15.0L462.3-15.0L470.8-12.7Q469.5-8.6 466.5-5.5Q463.4-2.3 459.0-0.6Q454.5 1.2 448.9 1.2ZM507.2 1.2L507.2 1.2Q499.3 1.2 493.5-2.3Q487.8-5.9 484.7-12.2Q481.6-18.5 481.6-26.9L481.6-26.9Q481.6-35.3 484.6-41.7Q487.6-48.0 493.2-51.7Q498.7-55.3 506.2-55.3L506.2-55.3Q510.5-55.3 514.7-53.8Q518.9-52.4 522.4-49.2Q525.8-46.0 527.9-40.8Q529.9-35.5 529.9-28.0L529.9-28.0L529.9-24.3L487.5-24.3L487.5-31.7L525.2-31.7L521.1-29.0Q521.1-34.4 519.4-38.5Q517.7-42.7 514.4-45.1Q511.1-47.5 506.2-47.5L506.2-47.5Q501.2-47.5 497.7-45.0Q494.2-42.6 492.3-38.7Q490.5-34.9 490.5-30.4L490.5-30.4L490.5-25.5Q490.5-19.4 492.6-15.2Q494.7-11.0 498.5-8.8Q502.2-6.6 507.2-6.6L507.2-6.6Q510.4-6.6 513.1-7.6Q515.7-8.5 517.6-10.4Q519.5-12.3 520.6-15.0L520.6-15.0L529.1-12.7Q527.8-8.6 524.8-5.5Q521.7-2.3 517.3-0.6Q512.8 1.2 507.2 1.2ZM551.3 0L542.5 0L542.5-54.6L551.0-54.6L551.0-46.2L551.6-46.2Q553.1-50.3 557.0-52.9Q560.9-55.4 565.8-55.4L565.8-55.4Q566.7-55.4 568.1-55.3Q569.4-55.3 570.2-55.2L570.2-55.2L570.2-46.4Q569.8-46.5 568.3-46.7Q566.7-46.9 564.9-46.9L564.9-46.9Q561.0-46.9 557.9-45.2Q554.8-43.6 553.1-40.7Q551.3-37.9 551.3-34.2L551.3-34.2L551.3 0ZM589.0 0L580.2 0L580.2-54.6L589.0-54.6L589.0 0ZM584.6-63.5L584.6-63.5Q582.1-63.5 580.3-65.2Q578.5-66.9 578.5-69.3L578.5-69.3Q578.5-71.8 580.3-73.5Q582.1-75.1 584.6-75.1L584.6-75.1Q587.2-75.1 589.0-73.5Q590.8-71.8 590.8-69.3L590.8-69.3Q590.8-66.9 589.0-65.2Q587.2-63.5 584.6-63.5ZM613.2-32.7L613.2-32.7L613.2 0L604.4 0L604.4-54.6L612.8-54.6L612.9-41.4L611.7-41.4Q614.2-48.9 618.8-52.1Q623.4-55.3 629.6-55.3L629.6-55.3Q635.1-55.3 639.3-53.0Q643.4-50.7 645.7-46.2Q648.0-41.6 648.0-34.7L648.0-34.7L648.0 0L639.3 0L639.3-33.9Q639.3-40.2 636.0-43.8Q632.7-47.4 627.0-47.4L627.0-47.4Q623.0-47.4 619.9-45.7Q616.8-43.9 615.0-40.7Q613.2-37.4 613.2-32.7ZM685.6 21.6L685.6 21.6Q679.5 21.6 675.1 20.0Q670.7 18.5 667.8 16.0Q664.8 13.4 663.1 10.4L663.1 10.4L670.3 5.9Q671.4 7.4 673.2 9.3Q674.9 11.2 677.9 12.6Q680.8 13.9 685.6 13.9L685.6 13.9Q692.1 13.9 696.4 10.8Q700.6 7.7 700.6 0.9L700.6 0.9L700.6-10.0L699.8-10.0Q698.8-8.4 697.1-6.3Q695.5-4.2 692.3-2.5Q689.2-0.9 683.9-0.9L683.9-0.9Q677.3-0.9 672.1-4.0Q666.9-7.1 663.9-13.0Q660.8-19.0 660.8-27.5L660.8-27.5Q660.8-36.0 663.8-42.2Q666.8-48.4 672.0-51.9Q677.3-55.3 684.1-55.3L684.1-55.3Q689.4-55.3 692.5-53.5Q695.7-51.8 697.4-49.6Q699.1-47.3 700-45.8L700-45.8L700.8-45.8L700.8-54.6L709.4-54.6L709.4 1.4Q709.4 8.4 706.2 12.9Q703.0 17.4 697.6 19.5Q692.2 21.6 685.6 21.6ZM685.4-8.7L685.4-8.7Q690.3-8.7 693.8-11.0Q697.2-13.2 698.9-17.5Q700.7-21.8 700.7-27.7L700.7-27.7Q700.7-33.5 699.0-38.0Q697.2-42.4 693.8-44.9Q690.4-47.4 685.4-47.4L685.4-47.4Q680.2-47.4 676.7-44.8Q673.2-42.1 671.5-37.6Q669.8-33.2 669.8-27.7L669.8-27.7Q669.8-22.1 671.5-17.8Q673.3-13.5 676.8-11.1Q680.2-8.7 685.4-8.7ZM746.2-54.6L774.4-54.6L774.4-47.1L746.2-47.1L746.2-54.6ZM754.4-13.5L754.4-67.6L763.2-67.6L763.2-14.2Q763.2-10.5 764.7-8.8Q766.2-7.1 769.6-7.1L769.6-7.1Q770.5-7.1 771.8-7.3Q773.0-7.5 774.1-7.7L774.1-7.7L775.9-0.3Q774.6 0.2 772.8 0.4Q771.1 0.7 769.4 0.7L769.4 0.7Q762.3 0.7 758.3-3.1Q754.4-6.8 754.4-13.5L754.4-13.5ZM808.6 1.2L808.6 1.2Q800.7 1.2 794.9-2.3Q789.2-5.9 786.1-12.2Q783.0-18.5 783.0-26.9L783.0-26.9Q783.0-35.3 786.0-41.7Q789.1-48.0 794.6-51.7Q800.1-55.3 807.6-55.3L807.6-55.3Q811.9-55.3 816.1-53.8Q820.4-52.4 823.8-49.2Q827.2-46.0 829.3-40.8Q831.3-35.5 831.3-28.0L831.3-28.0L831.3-24.3L789.0-24.3L789.0-31.7L826.6-31.7L822.5-29.0Q822.5-34.4 820.8-38.5Q819.1-42.7 815.8-45.1Q812.5-47.5 807.6-47.5L807.6-47.5Q802.6-47.5 799.1-45.0Q795.6-42.6 793.8-38.7Q791.9-34.9 791.9-30.4L791.9-30.4L791.9-25.5Q791.9-19.4 794.0-15.2Q796.1-11.0 799.9-8.8Q803.7-6.6 808.6-6.6L808.6-6.6Q811.9-6.6 814.5-7.6Q817.1-8.5 819.0-10.4Q820.9-12.3 822.0-15.0L822.0-15.0L830.5-12.7Q829.2-8.6 826.2-5.5Q823.1-2.3 818.7-0.6Q814.2 1.2 808.6 1.2ZM859.2 1.3L859.2 1.3Q854.1 1.3 849.8-0.7Q845.6-2.6 843.1-6.4Q840.6-10.2 840.6-15.5L840.6-15.5Q840.6-20.2 842.5-23.1Q844.3-26.1 847.4-27.8Q850.5-29.4 854.3-30.3Q858.1-31.1 861.9-31.6L861.9-31.6Q866.7-32.2 869.8-32.6Q872.9-32.9 874.4-33.7Q875.9-34.6 875.9-36.6L875.9-36.6L875.9-36.9Q875.9-40.3 874.6-42.7Q873.3-45.0 870.8-46.3Q868.3-47.6 864.5-47.6L864.5-47.6Q860.5-47.6 857.8-46.3Q855.0-45.1 853.2-43.3Q851.5-41.5 850.6-39.6L850.6-39.6L842.2-42.3Q844.3-47.3 847.9-50.1Q851.4-52.9 855.7-54.1Q860.0-55.3 864.2-55.3L864.2-55.3Q866.9-55.3 870.4-54.6Q873.9-54.0 877.2-52.0Q880.4-50.0 882.5-46.2Q884.7-42.4 884.7-36.0L884.7-36.0L884.7 0L876.0 0L876.0-7.4L875.4-7.4Q874.5-5.5 872.5-3.5Q870.4-1.5 867.1-0.1Q863.9 1.3 859.2 1.3ZM860.7-6.5L860.7-6.5Q865.6-6.5 869.0-8.4Q872.4-10.3 874.1-13.4Q875.9-16.4 875.9-19.7L875.9-19.7L875.9-27.3Q875.3-26.7 873.5-26.1Q871.7-25.6 869.4-25.2Q867.1-24.9 864.9-24.6Q862.7-24.3 861.5-24.2L861.5-24.2Q858.3-23.8 855.5-22.8Q852.8-21.9 851.1-20.0Q849.5-18.2 849.5-15.1L849.5-15.1Q849.5-12.3 850.9-10.4Q852.4-8.4 854.9-7.5Q857.5-6.5 860.7-6.5ZM908.9 0L900.1 0L900.1-54.6L908.6-54.6L908.7-42.4L908.0-42.4Q909.1-46.8 911.5-49.7Q914.0-52.6 917.2-54.1Q920.5-55.6 924.0-55.6L924.0-55.6Q929.9-55.6 933.6-51.9Q937.3-48.2 938.4-42.3L938.4-42.3L937.2-42.3Q938.2-46.4 940.8-49.4Q943.4-52.3 947.0-54.0Q950.7-55.6 955.1-55.6L955.1-55.6Q959.8-55.6 963.7-53.5Q967.6-51.5 969.9-47.3Q972.3-43.2 972.3-36.8L972.3-36.8L972.3 0L963.5 0L963.5-36.6Q963.5-42.5 960.2-45.0Q956.8-47.6 952.4-47.6L952.4-47.6Q948.8-47.6 946.1-46.0Q943.5-44.5 942.0-41.8Q940.6-39.1 940.6-35.6L940.6-35.6L940.6 0L931.8 0L931.8-37.5Q931.8-42.0 928.8-44.8Q925.7-47.6 921.1-47.6L921.1-47.6Q917.9-47.6 915.1-46.1Q912.3-44.6 910.6-41.7Q908.9-38.7 908.9-34.4L908.9-34.4L908.9 0ZM1009.1-54.6L1041.2-54.6L1041.2-47.1L1009.1-47.1L1009.1-54.6ZM1028.6 0L1019.8 0L1019.8-61.9Q1019.8-66.6 1022.0-69.8Q1024.3-72.9 1027.8-74.6Q1031.4-76.2 1035.4-76.2L1035.4-76.2Q1038.5-76.2 1040.5-75.7Q1042.6-75.1 1043.6-74.7L1043.6-74.7L1041.1-67.2Q1040.4-67.4 1039.3-67.7Q1038.2-68.0 1036.4-68.0L1036.4-68.0Q1032.3-68.0 1030.5-65.9Q1028.6-63.9 1028.6-59.9L1028.6-59.9L1028.6 0ZM1075.0 1.2L1075.0 1.2Q1067.6 1.2 1062.0-2.3Q1056.4-5.9 1053.3-12.2Q1050.2-18.6 1050.2-27.0L1050.2-27.0Q1050.2-35.5 1053.3-41.9Q1056.4-48.2 1062.0-51.8Q1067.6-55.3 1075.0-55.3L1075.0-55.3Q1082.5-55.3 1088.1-51.8Q1093.8-48.2 1096.9-41.9Q1100-35.5 1100-27.0L1100-27.0Q1100-18.6 1096.9-12.2Q1093.8-5.9 1088.1-2.3Q1082.5 1.2 1075.0 1.2ZM1075.0-6.7L1075.0-6.7Q1080.6-6.7 1084.1-9.5Q1087.7-12.4 1089.4-17.0Q1091.1-21.6 1091.1-27.0L1091.1-27.0Q1091.1-32.4 1089.4-37.0Q1087.7-41.7 1084.1-44.6Q1080.6-47.4 1075.0-47.4L1075.0-47.4Q1069.6-47.4 1066.1-44.6Q1062.5-41.7 1060.8-37.1Q1059.1-32.4 1059.1-27.0L1059.1-27.0Q1059.1-21.6 1060.8-17.0Q1062.5-12.4 1066.1-9.5Q1069.6-6.7 1075.0-6.7ZM1121.6 0L1112.8 0L1112.8-54.6L1121.3-54.6L1121.3-46.2L1121.9-46.2Q1123.4-50.3 1127.3-52.9Q1131.2-55.4 1136.0-55.4L1136.0-55.4Q1137.0-55.4 1138.4-55.3Q1139.7-55.3 1140.5-55.2L1140.5-55.2L1140.5-46.4Q1140.1-46.5 1138.5-46.7Q1137.0-46.9 1135.2-46.9L1135.2-46.9Q1131.3-46.9 1128.2-45.2Q1125.1-43.6 1123.3-40.7Q1121.6-37.9 1121.6-34.2L1121.6-34.2L1121.6 0ZM1209.1 1.0L1209.1 1.0Q1199.8 1.0 1192.5-3.5Q1185.2-8.1 1181.0-16.4Q1176.8-24.8 1176.8-36.3L1176.8-36.3Q1176.8-47.9 1181.0-56.3Q1185.2-64.6 1192.5-69.2Q1199.8-73.7 1209.1-73.7L1209.1-73.7Q1214.6-73.7 1219.5-72.1Q1224.4-70.5 1228.3-67.4Q1232.2-64.3 1234.8-59.9Q1237.5-55.5 1238.4-49.9L1238.4-49.9L1229.2-49.9Q1228.4-53.6 1226.5-56.4Q1224.6-59.3 1221.9-61.2Q1219.2-63.2 1215.9-64.2Q1212.6-65.1 1209.1-65.1L1209.1-65.1Q1202.5-65.1 1197.3-61.8Q1192.0-58.5 1188.9-52.1Q1185.8-45.7 1185.8-36.3L1185.8-36.3Q1185.8-27.1 1188.9-20.6Q1192.0-14.2 1197.3-10.9Q1202.6-7.6 1209.1-7.6L1209.1-7.6Q1212.6-7.6 1215.9-8.6Q1219.2-9.6 1221.9-11.5Q1224.6-13.5 1226.5-16.3Q1228.4-19.2 1229.2-22.9L1229.2-22.9L1238.4-22.9Q1237.5-17.3 1234.9-12.9Q1232.3-8.5 1228.4-5.4Q1224.5-2.3 1219.6-0.7Q1214.6 1.0 1209.1 1.0ZM1251.6-72.8L1260.4-72.8L1260.4 0L1251.6 0L1251.6-72.8ZM1291.1 1.3L1291.1 1.3Q1285.9 1.3 1281.7-0.7Q1277.5-2.6 1275-6.4Q1272.5-10.2 1272.5-15.5L1272.5-15.5Q1272.5-20.2 1274.4-23.1Q1276.2-26.1 1279.3-27.8Q1282.4-29.4 1286.2-30.3Q1289.9-31.1 1293.8-31.6L1293.8-31.6Q1298.6-32.2 1301.7-32.6Q1304.8-32.9 1306.3-33.7Q1307.8-34.6 1307.8-36.6L1307.8-36.6L1307.8-36.9Q1307.8-40.3 1306.5-42.7Q1305.2-45.0 1302.7-46.3Q1300.1-47.6 1296.3-47.6L1296.3-47.6Q1292.4-47.6 1289.6-46.3Q1286.9-45.1 1285.1-43.3Q1283.4-41.5 1282.5-39.6L1282.5-39.6L1274.1-42.3Q1276.2-47.3 1279.7-50.1Q1283.3-52.9 1287.6-54.1Q1291.9-55.3 1296.1-55.3L1296.1-55.3Q1298.8-55.3 1302.3-54.6Q1305.8-54.0 1309.1-52.0Q1312.3-50.0 1314.4-46.2Q1316.6-42.4 1316.6-36.0L1316.6-36.0L1316.6 0L1307.9 0L1307.9-7.4L1307.3-7.4Q1306.4-5.5 1304.3-3.5Q1302.3-1.5 1299.0-0.1Q1295.8 1.3 1291.1 1.3ZM1292.6-6.5L1292.6-6.5Q1297.5-6.5 1300.9-8.4Q1304.2-10.3 1306.0-13.4Q1307.8-16.4 1307.8-19.7L1307.8-19.7L1307.8-27.3Q1307.2-26.7 1305.4-26.1Q1303.6-25.6 1301.3-25.2Q1299.0-24.9 1296.8-24.6Q1294.6-24.3 1293.4-24.2L1293.4-24.2Q1290.2-23.8 1287.4-22.8Q1284.7-21.9 1283.0-20.0Q1281.3-18.2 1281.3-15.1L1281.3-15.1Q1281.3-12.3 1282.8-10.4Q1284.3-8.4 1286.8-7.5Q1289.4-6.5 1292.6-6.5ZM1350.5 0.7L1350.5 0.7Q1345.0 0.7 1340.8-1.6Q1336.6-3.9 1334.3-8.4Q1332.0-13.0 1332.0-19.9L1332.0-19.9L1332.0-54.6L1340.8-54.6L1340.8-20.7Q1340.8-14.4 1344.1-10.8Q1347.4-7.2 1353.1-7.2L1353.1-7.2Q1357.0-7.2 1360.1-8.9Q1363.2-10.6 1365.0-13.9Q1366.8-17.2 1366.8-21.9L1366.8-21.9L1366.8-54.6L1375.7-54.6L1375.7 0L1367.2 0L1367.2-13.2L1368.4-13.2Q1365.8-5.6 1361.2-2.4Q1356.5 0.7 1350.5 0.7ZM1411.6 1.2L1411.6 1.2Q1404.8 1.2 1399.6-2.3Q1394.3-5.8 1391.4-12.1Q1388.5-18.5 1388.5-27.1L1388.5-27.1Q1388.5-35.8 1391.4-42.1Q1394.4-48.4 1399.6-51.9Q1404.8-55.3 1411.6-55.3L1411.6-55.3Q1416.9-55.3 1420.1-53.5Q1423.2-51.8 1424.9-49.5Q1426.6-47.3 1427.4-45.8L1427.4-45.8L1428.1-45.8L1428.1-72.8L1436.9-72.8L1436.9 0L1428.4 0L1428.4-8.4L1427.4-8.4Q1426.6-6.9 1424.8-4.7Q1423.1-2.4 1419.9-0.6Q1416.8 1.2 1411.6 1.2ZM1412.9-6.7L1412.9-6.7Q1417.9-6.7 1421.3-9.3Q1424.7-11.9 1426.5-16.6Q1428.2-21.2 1428.2-27.2L1428.2-27.2Q1428.2-33.3 1426.5-37.8Q1424.8-42.3 1421.3-44.9Q1417.9-47.4 1412.9-47.4L1412.9-47.4Q1407.7-47.4 1404.3-44.7Q1400.8-42.0 1399.1-37.5Q1397.4-32.9 1397.4-27.2L1397.4-27.2Q1397.4-21.5 1399.1-16.9Q1400.9-12.2 1404.3-9.4Q1407.8-6.7 1412.9-6.7ZM1475.3 1.2L1475.3 1.2Q1467.4 1.2 1461.6-2.3Q1455.9-5.9 1452.8-12.2Q1449.7-18.5 1449.7-26.9L1449.7-26.9Q1449.7-35.3 1452.7-41.7Q1455.8-48.0 1461.3-51.7Q1466.8-55.3 1474.3-55.3L1474.3-55.3Q1478.6-55.3 1482.8-53.8Q1487.1-52.4 1490.5-49.2Q1493.9-46.0 1496.0-40.8Q1498.0-35.5 1498.0-28.0L1498.0-28.0L1498.0-24.3L1455.7-24.3L1455.7-31.7L1493.3-31.7L1489.2-29.0Q1489.2-34.4 1487.5-38.5Q1485.8-42.7 1482.5-45.1Q1479.2-47.5 1474.3-47.5L1474.3-47.5Q1469.3-47.5 1465.8-45.0Q1462.3-42.6 1460.4-38.7Q1458.6-34.9 1458.6-30.4L1458.6-30.4L1458.6-25.5Q1458.6-19.4 1460.7-15.2Q1462.8-11.0 1466.6-8.8Q1470.4-6.6 1475.3-6.6L1475.3-6.6Q1478.6-6.6 1481.2-7.6Q1483.8-8.5 1485.7-10.4Q1487.6-12.3 1488.7-15.0L1488.7-15.0L1497.2-12.7Q1495.9-8.6 1492.9-5.5Q1489.8-2.3 1485.4-0.6Q1480.9 1.2 1475.3 1.2ZM1569.3 1.0L1569.3 1.0Q1560.0 1.0 1552.7-3.5Q1545.4-8.1 1541.2-16.4Q1537.0-24.8 1537.0-36.3L1537.0-36.3Q1537.0-47.9 1541.2-56.3Q1545.4-64.6 1552.7-69.2Q1560.0-73.7 1569.3-73.7L1569.3-73.7Q1574.8-73.7 1579.7-72.1Q1584.6-70.5 1588.5-67.4Q1592.4-64.3 1595.0-59.9Q1597.7-55.5 1598.6-49.9L1598.6-49.9L1589.4-49.9Q1588.6-53.6 1586.7-56.4Q1584.8-59.3 1582.1-61.2Q1579.4-63.2 1576.1-64.2Q1572.9-65.1 1569.3-65.1L1569.3-65.1Q1562.7-65.1 1557.5-61.8Q1552.2-58.5 1549.1-52.1Q1546.0-45.7 1546.0-36.3L1546.0-36.3Q1546.0-27.1 1549.1-20.6Q1552.2-14.2 1557.5-10.9Q1562.8-7.6 1569.3-7.6L1569.3-7.6Q1572.9-7.6 1576.1-8.6Q1579.4-9.6 1582.1-11.5Q1584.8-13.5 1586.7-16.3Q1588.6-19.2 1589.4-22.9L1589.4-22.9L1598.6-22.9Q1597.7-17.3 1595.1-12.9Q1592.5-8.5 1588.6-5.4Q1584.7-2.3 1579.8-0.7Q1574.9 1.0 1569.3 1.0ZM1634.0 1.2L1634.0 1.2Q1626.6 1.2 1621.0-2.3Q1615.4-5.9 1612.3-12.2Q1609.2-18.6 1609.2-27.0L1609.2-27.0Q1609.2-35.5 1612.3-41.9Q1615.4-48.2 1621.0-51.8Q1626.6-55.3 1634.0-55.3L1634.0-55.3Q1641.5-55.3 1647.1-51.8Q1652.7-48.2 1655.9-41.9Q1659.0-35.5 1659.0-27.0L1659.0-27.0Q1659.0-18.6 1655.9-12.2Q1652.7-5.9 1647.1-2.3Q1641.5 1.2 1634.0 1.2ZM1634.0-6.7L1634.0-6.7Q1639.6-6.7 1643.1-9.5Q1646.7-12.4 1648.4-17.0Q1650.1-21.6 1650.1-27.0L1650.1-27.0Q1650.1-32.4 1648.4-37.0Q1646.7-41.7 1643.1-44.6Q1639.6-47.4 1634.0-47.4L1634.0-47.4Q1628.6-47.4 1625.0-44.6Q1621.5-41.7 1619.8-37.1Q1618.1-32.4 1618.1-27.0L1618.1-27.0Q1618.1-21.6 1619.8-17.0Q1621.5-12.4 1625.0-9.5Q1628.6-6.7 1634.0-6.7ZM1692.2 1.2L1692.2 1.2Q1685.4 1.2 1680.2-2.3Q1675-5.8 1672.1-12.1Q1669.1-18.5 1669.1-27.1L1669.1-27.1Q1669.1-35.8 1672.1-42.1Q1675.0-48.4 1680.3-51.9Q1685.5-55.3 1692.3-55.3L1692.3-55.3Q1697.6-55.3 1700.7-53.5Q1703.9-51.8 1705.5-49.5Q1707.2-47.3 1708.1-45.8L1708.1-45.8L1708.8-45.8L1708.8-72.8L1717.6-72.8L1717.6 0L1709.1 0L1709.1-8.4L1708.1-8.4Q1707.2-6.9 1705.5-4.7Q1703.8-2.4 1700.6-0.6Q1697.5 1.2 1692.2 1.2ZM1693.6-6.7L1693.6-6.7Q1698.5-6.7 1702.0-9.3Q1705.4-11.9 1707.1-16.6Q1708.9-21.2 1708.9-27.2L1708.9-27.2Q1708.9-33.3 1707.2-37.8Q1705.4-42.3 1702.0-44.9Q1698.6-47.4 1693.6-47.4L1693.6-47.4Q1688.4-47.4 1684.9-44.7Q1681.5-42.0 1679.8-37.5Q1678.1-32.9 1678.1-27.2L1678.1-27.2Q1678.1-21.5 1679.8-16.9Q1681.5-12.2 1685.0-9.4Q1688.5-6.7 1693.6-6.7ZM1756.0 1.2L1756.0 1.2Q1748.0 1.2 1742.3-2.3Q1736.6-5.9 1733.5-12.2Q1730.4-18.5 1730.4-26.9L1730.4-26.9Q1730.4-35.3 1733.4-41.7Q1736.4-48.0 1742.0-51.7Q1747.5-55.3 1754.9-55.3L1754.9-55.3Q1759.3-55.3 1763.5-53.8Q1767.7-52.4 1771.2-49.2Q1774.6-46.0 1776.7-40.8Q1778.7-35.5 1778.7-28.0L1778.7-28.0L1778.7-24.3L1736.3-24.3L1736.3-31.7L1774.0-31.7L1769.9-29.0Q1769.9-34.4 1768.2-38.5Q1766.5-42.7 1763.2-45.1Q1759.9-47.5 1754.9-47.5L1754.9-47.5Q1750-47.5 1746.5-45.0Q1743.0-42.6 1741.1-38.7Q1739.3-34.9 1739.3-30.4L1739.3-30.4L1739.3-25.5Q1739.3-19.4 1741.4-15.2Q1743.5-11.0 1747.2-8.8Q1751.0-6.6 1756.0-6.6L1756.0-6.6Q1759.2-6.6 1761.9-7.6Q1764.5-8.5 1766.4-10.4Q1768.3-12.3 1769.3-15.0L1769.3-15.0L1777.8-12.7Q1776.6-8.6 1773.5-5.5Q1770.5-2.3 1766.0-0.6Q1761.6 1.2 1756.0 1.2ZM1796.6 17.5L1789.8 17.5L1794.1-10.2L1804.2-10.2L1796.6 17.5ZM1863.5 1.3L1863.5 1.3Q1858.3 1.3 1854.1-0.7Q1849.9-2.6 1847.4-6.4Q1844.9-10.2 1844.9-15.5L1844.9-15.5Q1844.9-20.2 1846.8-23.1Q1848.6-26.1 1851.7-27.8Q1854.8-29.4 1858.6-30.3Q1862.4-31.1 1866.2-31.6L1866.2-31.6Q1871.0-32.2 1874.1-32.6Q1877.2-32.9 1878.7-33.7Q1880.2-34.6 1880.2-36.6L1880.2-36.6L1880.2-36.9Q1880.2-40.3 1878.9-42.7Q1877.6-45.0 1875.1-46.3Q1872.6-47.6 1868.8-47.6L1868.8-47.6Q1864.8-47.6 1862.1-46.3Q1859.3-45.1 1857.5-43.3Q1855.8-41.5 1854.9-39.6L1854.9-39.6L1846.5-42.3Q1848.6-47.3 1852.1-50.1Q1855.7-52.9 1860.0-54.1Q1864.3-55.3 1868.5-55.3L1868.5-55.3Q1871.2-55.3 1874.7-54.6Q1878.2-54.0 1881.5-52.0Q1884.7-50.0 1886.8-46.2Q1889.0-42.4 1889.0-36.0L1889.0-36.0L1889.0 0L1880.3 0L1880.3-7.4L1879.7-7.4Q1878.8-5.5 1876.8-3.5Q1874.7-1.5 1871.4-0.1Q1868.2 1.3 1863.5 1.3ZM1865.0-6.5L1865.0-6.5Q1869.9-6.5 1873.3-8.4Q1876.7-10.3 1878.4-13.4Q1880.2-16.4 1880.2-19.7L1880.2-19.7L1880.2-27.3Q1879.6-26.7 1877.8-26.1Q1876.0-25.6 1873.7-25.2Q1871.4-24.9 1869.2-24.6Q1867.0-24.3 1865.8-24.2L1865.8-24.2Q1862.6-23.8 1859.8-22.8Q1857.1-21.9 1855.4-20.0Q1853.8-18.2 1853.8-15.1L1853.8-15.1Q1853.8-12.3 1855.2-10.4Q1856.7-8.4 1859.2-7.5Q1861.8-6.5 1865.0-6.5ZM1922.9 1.2L1922.9 1.2Q1917.3 1.2 1913.0-0.5Q1908.6-2.1 1905.8-5.3Q1902.9-8.5 1902.0-13.2L1902.0-13.2L1910.3-15.2Q1911.5-10.7 1914.7-8.6Q1918.0-6.5 1922.9-6.5L1922.9-6.5Q1928.6-6.5 1932.0-9.0Q1935.4-11.4 1935.4-14.8L1935.4-14.8Q1935.4-17.6 1933.4-19.5Q1931.4-21.4 1927.3-22.3L1927.3-22.3L1918.3-24.5Q1910.8-26.2 1907.2-29.9Q1903.6-33.6 1903.6-39.4L1903.6-39.4Q1903.6-44.0 1906.3-47.6Q1908.9-51.2 1913.5-53.2Q1918.0-55.3 1923.8-55.3L1923.8-55.3Q1929.4-55.3 1933.4-53.6Q1937.3-51.9 1939.8-49.0Q1942.2-46.0 1943.5-42.1L1943.5-42.1L1935.5-40.1Q1934.4-43.0 1931.8-45.4Q1929.2-47.8 1923.9-47.8L1923.9-47.8Q1919.0-47.8 1915.7-45.6Q1912.5-43.3 1912.5-39.9L1912.5-39.9Q1912.5-36.9 1914.7-35.0Q1916.9-33.2 1921.7-32.1L1921.7-32.1L1929.9-30.1Q1937.4-28.4 1940.9-24.7Q1944.5-21.0 1944.5-15.4L1944.5-15.4Q1944.5-10.6 1941.8-6.9Q1939.1-3.1 1934.2-1.0Q1929.3 1.2 1922.9 1.2ZM2000.6 1.3L2000.6 1.3Q1995.4 1.3 1991.2-0.7Q1987.0-2.6 1984.5-6.4Q1982.0-10.2 1982.0-15.5L1982.0-15.5Q1982.0-20.2 1983.8-23.1Q1985.7-26.1 1988.8-27.8Q1991.9-29.4 1995.7-30.3Q1999.4-31.1 2003.2-31.6L2003.2-31.6Q2008.1-32.2 2011.2-32.6Q2014.3-32.9 2015.7-33.7Q2017.2-34.6 2017.2-36.6L2017.2-36.6L2017.2-36.9Q2017.2-40.3 2016.0-42.7Q2014.7-45.0 2012.2-46.3Q2009.6-47.6 2005.8-47.6L2005.8-47.6Q2001.9-47.6 1999.1-46.3Q1996.3-45.1 1994.6-43.3Q1992.9-41.5 1992.0-39.6L1992.0-39.6L1983.5-42.3Q1985.6-47.3 1989.2-50.1Q1992.8-52.9 1997.1-54.1Q2001.4-55.3 2005.6-55.3L2005.6-55.3Q2008.3-55.3 2011.8-54.6Q2015.3-54.0 2018.5-52.0Q2021.8-50.0 2023.9-46.2Q2026.0-42.4 2026.0-36.0L2026.0-36.0L2026.0 0L2017.4 0L2017.4-7.4L2016.8-7.4Q2015.9-5.5 2013.8-3.5Q2011.8-1.5 2008.5-0.1Q2005.2 1.3 2000.6 1.3ZM2002.1-6.5L2002.1-6.5Q2007.0-6.5 2010.4-8.4Q2013.7-10.3 2015.5-13.4Q2017.2-16.4 2017.2-19.7L2017.2-19.7L2017.2-27.3Q2016.7-26.7 2014.9-26.1Q2013.1-25.6 2010.8-25.2Q2008.4-24.9 2006.3-24.6Q2004.1-24.3 2002.8-24.2L2002.8-24.2Q1999.7-23.8 1996.9-22.8Q1994.1-21.9 1992.5-20.0Q1990.8-18.2 1990.8-15.1L1990.8-15.1Q1990.8-12.3 1992.3-10.4Q1993.8-8.4 1996.3-7.5Q1998.8-6.5 2002.1-6.5ZM2078.4 20.4L2069.6 20.4L2069.6-54.6L2078.1-54.6L2078.1-45.8L2079.1-45.8Q2080.0-47.3 2081.6-49.5Q2083.3-51.8 2086.4-53.5Q2089.6-55.3 2094.9-55.3L2094.9-55.3Q2101.7-55.3 2106.9-51.9Q2112.1-48.4 2115.1-42.1Q2118.0-35.8 2118.0-27.1L2118.0-27.1Q2118.0-18.5 2115.1-12.1Q2112.2-5.8 2107.0-2.3Q2101.8 1.2 2094.9 1.2L2094.9 1.2Q2089.7 1.2 2086.6-0.6Q2083.4-2.4 2081.7-4.7Q2080.0-6.9 2079.1-8.4L2079.1-8.4L2078.4-8.4L2078.4 20.4ZM2093.6-6.7L2093.6-6.7Q2098.7-6.7 2102.2-9.4Q2105.6-12.2 2107.3-16.9Q2109.1-21.5 2109.1-27.2L2109.1-27.2Q2109.1-32.9 2107.4-37.5Q2105.7-42.0 2102.2-44.7Q2098.8-47.4 2093.6-47.4L2093.6-47.4Q2088.6-47.4 2085.2-44.9Q2081.7-42.3 2080.0-37.8Q2078.3-33.3 2078.3-27.2L2078.3-27.2Q2078.3-21.2 2080.0-16.6Q2081.8-11.9 2085.2-9.3Q2088.7-6.7 2093.6-6.7ZM2130.8-72.8L2139.6-72.8L2139.6 0L2130.8 0L2130.8-72.8ZM2173.5 0.7L2173.5 0.7Q2168.0 0.7 2163.8-1.6Q2159.7-3.9 2157.3-8.4Q2155.0-13.0 2155.0-19.9L2155.0-19.9L2155.0-54.6L2163.8-54.6L2163.8-20.7Q2163.8-14.4 2167.1-10.8Q2170.5-7.2 2176.2-7.2L2176.2-7.2Q2180.1-7.2 2183.2-8.9Q2186.3-10.6 2188.1-13.9Q2189.9-17.2 2189.9-21.9L2189.9-21.9L2189.9-54.6L2198.7-54.6L2198.7 0L2190.2 0L2190.2-13.2L2191.4-13.2Q2188.9-5.6 2184.2-2.4Q2179.5 0.7 2173.5 0.7ZM2236.3 21.6L2236.3 21.6Q2230.2 21.6 2225.8 20.0Q2221.4 18.5 2218.5 16.0Q2215.5 13.4 2213.8 10.4L2213.8 10.4L2220.9 5.9Q2222.1 7.4 2223.9 9.3Q2225.6 11.2 2228.5 12.6Q2231.5 13.9 2236.3 13.9L2236.3 13.9Q2242.8 13.9 2247.0 10.8Q2251.3 7.7 2251.3 0.9L2251.3 0.9L2251.3-10.0L2250.4-10.0Q2249.5-8.4 2247.8-6.3Q2246.1-4.2 2243.0-2.5Q2239.8-0.9 2234.6-0.9L2234.6-0.9Q2228.0-0.9 2222.8-4.0Q2217.6-7.1 2214.6-13.0Q2211.5-19.0 2211.5-27.5L2211.5-27.5Q2211.5-36.0 2214.5-42.2Q2217.5-48.4 2222.7-51.9Q2228.0-55.3 2234.8-55.3L2234.8-55.3Q2240.0-55.3 2243.2-53.5Q2246.3-51.8 2248.0-49.6Q2249.8-47.3 2250.7-45.8L2250.7-45.8L2251.5-45.8L2251.5-54.6L2260.1-54.6L2260.1 1.4Q2260.1 8.4 2256.9 12.9Q2253.7 17.4 2248.3 19.5Q2242.9 21.6 2236.3 21.6ZM2236.0-8.7L2236.0-8.7Q2241.0-8.7 2244.4-11.0Q2247.9-13.2 2249.6-17.5Q2251.4-21.8 2251.4-27.7L2251.4-27.7Q2251.4-33.5 2249.6-38.0Q2247.9-42.4 2244.5-44.9Q2241.1-47.4 2236.0-47.4L2236.0-47.4Q2230.9-47.4 2227.4-44.8Q2223.9-42.1 2222.2-37.6Q2220.5-33.2 2220.5-27.7L2220.5-27.7Q2220.5-22.1 2222.2-17.8Q2224.0-13.5 2227.4-11.1Q2230.9-8.7 2236.0-8.7ZM2284.3 0L2275.5 0L2275.5-54.6L2284.3-54.6L2284.3 0ZM2279.9-63.5L2279.9-63.5Q2277.4-63.5 2275.6-65.2Q2273.8-66.9 2273.8-69.3L2273.8-69.3Q2273.8-71.8 2275.6-73.5Q2277.4-75.1 2279.9-75.1L2279.9-75.1Q2282.5-75.1 2284.3-73.5Q2286.1-71.8 2286.1-69.3L2286.1-69.3Q2286.1-66.9 2284.3-65.2Q2282.5-63.5 2279.9-63.5ZM2308.5-32.7L2308.5-32.7L2308.5 0L2299.7 0L2299.7-54.6L2308.2-54.6L2308.2-41.4L2307.0-41.4Q2309.5-48.9 2314.1-52.1Q2318.7-55.3 2324.9-55.3L2324.9-55.3Q2330.4-55.3 2334.6-53.0Q2338.7-50.7 2341.0-46.2Q2343.4-41.6 2343.4-34.7L2343.4-34.7L2343.4 0L2334.6 0L2334.6-33.9Q2334.6-40.2 2331.3-43.8Q2328.0-47.4 2322.3-47.4L2322.3-47.4Q2318.4-47.4 2315.2-45.7Q2312.1-43.9 2310.3-40.7Q2308.5-37.4 2308.5-32.7ZM2365.5 0.6L2365.5 0.6Q2362.7 0.6 2360.8-1.3Q2358.9-3.2 2358.9-6.0L2358.9-6.0Q2358.9-8.7 2360.8-10.6Q2362.7-12.5 2365.5-12.5L2365.5-12.5Q2368.2-12.5 2370.1-10.6Q2372.1-8.7 2372.1-6.0L2372.1-6.0Q2372.1-3.2 2370.1-1.3Q2368.2 0.6 2365.5 0.6Z"/></svg>
