<svg xmlns="http://www.w3.org/2000/svg" viewBox="0 0 81.8 32"><g transform="translate(-2.4 3.2) scale(0.8)"><g fill="currentColor"><circle cx="7" cy="5" r="4"/><circle cx="16" cy="10.5" r="4"/><circle cx="25" cy="16" r="4"/><circle cx="16" cy="21.5" r="4"/><circle cx="7" cy="27" r="4"/></g></g><g transform="translate(30.8 0)"><g fill="currentColor"><path d="M0 4H4V28H0Z"/><path d="M12 12H18L10 20L18 28H12L4 20Z"/><path d="M21 12H25V28H21Z"/><path d="M23 22A8 8 0 0 1 31 14H33" fill="none" stroke="currentColor" stroke-width="4"/><path d="M37 12V20A6 6 0 0 0 49 20V12" fill="none" stroke="currentColor" stroke-width="4"/><path d="M47 12H51V28H47Z"/></g></g></svg>
